<svg width="91" height="90" viewBox="0 0 91 90" fill="none" xmlns="http://www.w3.org/2000/svg">
<circle cx="45.0766" cy="44.9797" r="44.9653" fill="#218225" fill-opacity="0.13"/>
<g clip-path="url(#clip0_1_86)">
<path d="M73.7651 44.6623C65.933 28.998 66.1736 29.4751 66.1236 29.3866C65.778 28.7749 65.1335 28.4214 64.4712 28.4214C64.1961 28.4214 26.4702 28.4166 26.322 28.43C25.681 28.4864 25.1101 28.8685 24.8101 29.4426C24.8051 29.4522 24.7994 29.4613 24.7946 29.4709L17.199 44.6622C17.1929 44.6742 17.1879 44.6866 17.1822 44.6987C17.1776 44.7081 17.1726 44.7172 17.1683 44.7267C17.1651 44.7336 17.1628 44.7407 17.1598 44.7475C17.1596 44.7477 17.1595 44.748 17.1595 44.7482C16.8725 45.4015 16.9709 46.1749 17.4508 46.7402C17.4568 46.7474 17.4622 46.7548 17.4684 46.7618L44.053 77.1443C44.0561 77.1478 44.0597 77.1508 44.0629 77.1544C44.8089 77.9939 46.1368 78.0146 46.9012 77.1544C46.9043 77.1508 46.9079 77.1478 46.911 77.1443L73.4956 46.7618C73.497 46.7603 73.4983 46.7586 73.4995 46.757C73.9846 46.1991 74.1193 45.3708 73.7651 44.6623ZM61.3987 32.2191L56.5511 41.9141L49.2798 32.2191H61.3987ZM53.0777 43.6126H37.8865L45.4821 33.4852L53.0777 43.6126ZM41.6843 32.2191L34.413 41.914L29.5656 32.2191H41.6843ZM26.4931 34.5664L31.0163 43.6126H21.97L26.4931 34.5664ZM23.0822 47.4103H32.7727L40.0405 66.7914L23.0822 47.4103ZM45.4821 70.4858L36.8288 47.4103H54.1354L45.4821 70.4858ZM50.9236 66.7915L58.1915 47.4105H67.8819L50.9236 66.7915ZM59.9481 43.6126L64.4712 34.5664L68.9944 43.6126H59.9481Z" fill="#218225"/>
<path d="M45.4819 12.9772C44.4332 12.9772 43.583 13.8274 43.583 14.876V20.5728C43.583 21.6215 44.4332 22.4717 45.4819 22.4717C46.5306 22.4717 47.3808 21.6215 47.3808 20.5728V14.876C47.3808 13.8274 46.5306 12.9772 45.4819 12.9772Z" fill="#218225"/>
<path d="M39.2292 21.1281L35.4315 17.3304C34.6901 16.5889 33.4877 16.5889 32.7461 17.3304C32.0045 18.0719 32.0045 19.2742 32.7461 20.0158L36.5439 23.8135C37.2854 24.5551 38.4877 24.5551 39.2292 23.8135C39.9708 23.0719 39.9708 21.8697 39.2292 21.1281Z" fill="#218225"/>
<path d="M58.218 17.3304C57.4766 16.5889 56.2742 16.5889 55.5326 17.3304L51.7349 21.1281C50.9933 21.8697 50.9933 23.0719 51.7349 23.8135C52.4765 24.5551 53.6788 24.555 54.4203 23.8135L58.218 20.0158C58.9596 19.2742 58.9596 18.0719 58.218 17.3304Z" fill="#218225"/>
</g>
<defs>
<clipPath id="clip0_1_86">
<rect width="64.8148" height="64.8148" fill="white" transform="translate(13.0742 12.9774)"/>
</clipPath>
</defs>
</svg>
