<svg width="91" height="91" viewBox="0 0 91 91" fill="none" xmlns="http://www.w3.org/2000/svg">
<circle cx="45.0766" cy="45.2991" r="44.9653" fill="#218225" fill-opacity="0.13"/>
<path d="M45.4764 18.6925C48.728 18.6925 51.8445 19.2677 54.7314 20.3183L51.5042 23.5428C46.6202 22.2148 41.4342 22.5377 36.7527 24.4614C32.0711 26.3851 28.1564 29.8018 25.6173 34.1802C23.0781 38.5586 22.0568 43.6532 22.7122 48.672C23.3675 53.6908 25.6628 58.3523 29.2412 61.9319C32.8195 65.5114 37.4803 67.8083 42.4989 68.4653C47.5174 69.1224 52.6124 68.1028 56.9916 65.5651C61.3708 63.0274 64.7888 59.1138 66.7141 54.4329C68.6394 49.7521 68.9641 44.5662 67.6377 39.6817L70.8622 36.4572C71.9407 39.4207 72.491 42.5504 72.488 45.7041C72.488 60.6223 60.3946 72.7157 45.4764 72.7157C30.5582 72.7157 18.4648 60.6223 18.4648 45.7041C18.4648 30.7859 30.5582 18.6925 45.4764 18.6925ZM45.4764 29.5004C46.8447 29.4997 48.2077 29.6722 49.5327 30.0135V34.2454C46.9341 33.326 44.1 33.3174 41.4958 34.221C38.8916 35.1245 36.6719 36.8866 35.2011 39.218C33.7304 41.5493 33.0958 44.3114 33.4017 47.0509C33.7076 49.7904 34.9358 52.3445 36.8846 54.294C38.8334 56.2435 41.387 57.4726 44.1264 57.7795C46.8658 58.0864 49.6281 57.4529 51.96 55.9829C54.2919 54.513 56.0548 52.294 56.9593 49.6901C57.8638 47.0862 57.8563 44.2522 56.9378 41.6532H61.1697C62.0146 44.9252 61.8152 48.3796 60.5996 51.5328C59.384 54.686 57.2129 57.3802 54.3902 59.2384C51.5675 61.0966 48.2345 62.0257 44.8576 61.8958C41.4807 61.7659 38.2289 60.5834 35.5573 58.5138C32.8858 56.4443 30.9281 53.5912 29.9583 50.3539C28.9886 47.1167 29.0552 43.6572 30.149 40.4597C31.2427 37.2622 33.3089 34.4867 36.0582 32.5215C38.8075 30.5564 42.1024 29.5001 45.4818 29.5004H45.4764ZM50.8777 45.7041C50.8773 46.865 50.5029 47.9948 49.81 48.9263C49.1171 49.8577 48.1425 50.541 47.0307 50.8751C45.9189 51.2092 44.7291 51.1761 43.6375 50.7809C42.546 50.3857 41.6109 49.6493 40.9707 48.6809C40.3305 47.7125 40.0194 46.5635 40.0834 45.4044C40.1474 44.2453 40.5832 43.1377 41.3262 42.2456C42.0691 41.3536 43.0797 40.7247 44.2081 40.4521C45.3365 40.1795 46.5228 40.2778 47.591 40.7322L52.2361 36.0872L52.2334 27.4749C52.2338 26.9379 52.4475 26.4231 52.8275 26.0436L59.579 19.292C59.8623 19.0091 60.223 18.8165 60.6157 18.7385C61.0084 18.6605 61.4154 18.7006 61.7852 18.8538C62.1551 19.0069 62.4713 19.2663 62.6939 19.599C62.9165 19.9318 63.0355 20.323 63.0358 20.7234V28.1501H70.4625C70.8629 28.1504 71.2541 28.2694 71.5869 28.492C71.9196 28.7146 72.179 29.0308 72.3321 29.4007C72.4853 29.7705 72.5254 30.1775 72.4474 30.5702C72.3694 30.9629 72.1768 31.3236 71.8939 31.6069L65.1423 38.3584C64.7628 38.7384 64.248 38.9521 63.711 38.9525H55.096L50.451 43.5976C50.7264 44.2457 50.8777 44.956 50.8777 45.7041ZM62.8711 34.9016L65.5717 32.201H61.0077C60.4705 32.201 59.9553 31.9876 59.5754 31.6077C59.1956 31.2279 58.9822 30.7127 58.9822 30.1755V25.6115L56.2843 28.3121V34.7423C56.3406 34.793 56.3938 34.8472 56.4436 34.9043H62.8711V34.9016Z" fill="#218225"/>
</svg>
