<svg width="91" height="91" viewBox="0 0 91 91" fill="none" xmlns="http://www.w3.org/2000/svg">
<circle cx="45.9423" cy="45.2991" r="44.9653" fill="#218225" fill-opacity="0.13"/>
<g clip-path="url(#clip0_1_81)">
<path d="M68.2065 14.282L69.1887 17.9475L28.6116 28.759L29.5952 32.4296L22.259 34.3955L23.2419 38.0636L19.5738 39.0465L17.6081 31.7103L13.9399 32.6932L18.8543 51.0337L22.5224 50.0508L20.5567 42.7145L24.2249 41.7316L25.2078 45.3998L32.544 43.434L33.5249 47.0947L41.6217 44.9604C42.1331 45.7176 42.8217 46.3458 43.6274 46.7852L29.9774 74.3125H25.459V78.11H32.3332L44.4466 53.6812V74.3125H40.6491V78.11H52.0416V74.3125H48.2441V53.6812L60.3575 78.11H67.2316V74.3125H62.7132L49.0633 46.7852C50.7252 45.879 51.887 44.1687 52.0259 42.1809L74.1032 36.2888L75.0866 39.9587L78.7548 38.9758L71.8747 13.2992L68.2065 14.282ZM27.8929 40.7488L26.9099 37.0807L30.5781 36.0978L31.561 39.7659L27.8929 40.7488ZM33.2641 31.4495L62.8327 23.5711L65.7823 34.5791L51.0128 38.5208C49.9819 37.049 48.2747 36.0841 46.3454 36.0841C43.3721 36.0841 40.925 38.3745 40.6722 41.2834L36.2141 42.4586L33.2641 31.4495ZM46.3453 43.6792C45.2983 43.6792 44.4466 42.8275 44.4466 41.7805C44.4466 40.7335 45.2983 39.8817 46.3453 39.8817C47.3923 39.8817 48.2441 40.7335 48.2441 41.7805C48.2441 42.8275 47.3923 43.6792 46.3453 43.6792ZM69.4512 33.6L66.5021 22.5935L70.1716 21.6157L73.1204 32.6208L69.4512 33.6Z" fill="#218225"/>
</g>
<defs>
<clipPath id="clip0_1_81">
<rect width="64.8148" height="64.8148" fill="white" transform="translate(13.9399 13.2966)"/>
</clipPath>
</defs>
</svg>
