<svg width="424" height="147" viewBox="0 0 424 147" fill="none" xmlns="http://www.w3.org/2000/svg">
<path d="M377.499 121.785C375.486 121.809 373.656 123.52 371.58 123.329C370.581 124.642 369.282 124.058 368.136 124.496C367.689 125.145 366.976 124.638 366.533 125.362C365.795 125.452 365.06 125.617 364.322 125.707C363.921 126.203 363.387 126.12 362.913 126.178C362.544 126.223 362.115 126.127 361.876 126.677C361.191 126.761 360.509 126.919 359.824 127.003C359.472 127.418 359.047 127.396 358.678 127.441C358.361 127.48 357.989 127.452 357.693 127.934C355.097 127.955 352.635 129.745 350.036 129.692C349.532 130.274 348.939 130.05 348.363 130.195C347.997 130.314 347.512 130.151 347.22 130.707C346.166 130.836 345.168 131.033 344.114 131.163C343.509 131.832 342.754 131.553 342.072 131.711C341.706 131.83 341.222 131.667 340.929 132.223C339.77 132.365 338.614 132.582 337.454 132.724C336.589 133.499 335.567 133.179 334.622 133.369C334.203 133.495 333.719 133.331 333.374 133.894C331.845 134.082 330.373 134.337 328.844 134.525C328.545 134.933 328.173 134.904 327.751 134.956C326.697 135.086 325.643 135.215 324.589 135.345C324.272 135.383 323.956 135.422 323.71 135.824C321.549 136.09 319.391 136.429 317.23 136.694C316.878 137.109 316.453 137.087 316.084 137.132C313.607 137.436 311.129 137.74 308.652 138.045C308.283 138.09 307.855 137.994 307.615 138.544C298.233 139.696 288.851 140.847 279.522 141.993C279.234 141.507 278.819 141.707 278.45 141.752C275.92 142.063 273.39 142.374 270.808 142.691C270.386 142.742 269.968 142.868 269.635 142.537C267.368 142.816 265.098 143.02 262.832 143.298C262.551 142.961 262.182 143.006 261.813 143.051C260.548 143.207 259.283 143.362 258.071 143.511C257.702 143.556 257.333 143.601 256.95 143.351C255.106 143.577 253.205 143.736 251.36 143.963C251.079 143.625 250.763 143.664 250.447 143.703C249.34 143.839 248.233 143.975 247.126 144.111C246.757 144.156 246.388 144.201 246.006 143.951C244.214 144.171 242.418 144.317 240.573 144.543C240.293 144.206 239.976 144.245 239.66 144.284C238.659 144.407 237.657 144.53 236.709 144.646C236.34 144.691 235.971 144.737 235.588 144.486C233.849 144.7 232.106 144.839 230.366 145.053C230.086 144.716 229.77 144.754 229.453 144.793C228.452 144.916 227.45 145.039 226.502 145.156C226.133 145.201 225.764 145.246 225.381 144.996C223.905 145.177 222.479 145.278 221.003 145.459C220.722 145.122 220.406 145.16 220.09 145.199C219.194 145.309 218.35 145.413 217.454 145.523C217.138 145.562 216.822 145.6 216.545 145.337C215.174 145.505 213.748 145.606 212.377 145.774C211.984 145.302 211.52 145.582 211.095 145.56C210.245 145.515 209.422 146.063 208.604 145.568C207.339 145.724 206.071 145.805 204.753 145.967C204.36 145.494 203.896 145.774 203.471 145.752C202.73 145.769 202.006 146.155 201.349 145.715C200.19 145.858 199.027 145.926 197.867 146.068C197.53 145.664 197.115 145.863 196.69 145.841C196.002 145.851 195.277 146.238 194.621 145.798C193.461 145.94 192.298 146.008 191.139 146.151C190.746 145.679 190.282 145.959 189.857 145.936C189.115 145.953 188.391 146.339 187.735 145.9C186.681 146.029 185.623 146.084 184.622 146.207C184.229 145.735 183.765 146.015 183.339 145.993C182.704 145.997 182.032 146.377 181.376 145.937C180.321 146.066 179.264 146.122 178.262 146.244C177.87 145.772 177.405 146.052 176.98 146.03C176.344 146.034 175.673 146.414 175.016 145.974C173.962 146.103 172.905 146.159 171.903 146.282C171.563 145.803 171.152 146.076 170.727 146.054C170.196 146.045 169.679 146.332 169.184 145.946C168.183 146.069 167.231 146.112 166.229 146.235C165.889 145.756 165.478 146.029 165.053 146.007C164.469 146.004 163.9 146.297 163.352 145.919C162.298 146.048 161.293 146.097 160.239 146.226C159.902 145.822 159.488 146.021 159.062 145.999C158.532 145.99 158.015 146.276 157.52 145.891C156.677 145.994 155.777 146.03 154.934 146.134C154.594 145.655 154.183 145.929 153.757 145.907C153.227 145.897 152.71 146.184 152.215 145.799C151.372 145.902 150.472 145.938 149.629 146.042C149.292 145.637 148.93 145.83 148.558 145.801C148.189 145.847 147.82 145.892 147.437 145.642C146.594 145.745 145.694 145.781 144.851 145.885C144.511 145.406 144.1 145.68 143.675 145.657C143.144 145.648 142.627 145.935 142.132 145.549C141.447 145.633 140.762 145.717 140.073 145.728C139.733 145.249 139.322 145.522 138.897 145.5C138.366 145.491 137.849 145.778 137.354 145.392C136.669 145.476 135.981 145.487 135.295 145.571C134.959 145.166 134.596 145.359 134.224 145.33C133.855 145.376 133.49 145.495 133.104 145.17C132.418 145.255 131.733 145.339 131.045 145.349C130.708 144.944 130.346 145.137 129.973 145.109C129.604 145.154 129.239 145.273 128.853 144.949C128.168 145.033 127.479 145.043 126.794 145.127C126.457 144.722 126.095 144.916 125.722 144.887C125.353 144.932 124.988 145.051 124.602 144.727C123.917 144.811 123.228 144.821 122.543 144.905C122.206 144.501 121.844 144.694 121.472 144.665C121.103 144.71 120.737 144.83 120.351 144.505C119.771 144.576 119.241 144.567 118.661 144.638C117.291 144.807 115.918 143.785 114.516 144.404C114.179 143.999 113.817 144.192 113.444 144.163C113.075 144.209 112.71 144.328 112.324 144.004C111.586 144.094 110.651 144.506 110.05 144.134C109.011 143.444 108.027 143.936 107.015 143.837C106.679 143.432 106.316 143.626 105.944 143.597C105.575 143.642 105.21 143.762 104.824 143.437C104.244 143.508 103.569 143.814 103.081 143.577C101.834 142.986 100.438 143.752 99.3008 143.223C98.2159 142.687 97.2316 143.179 96.2164 143.007C95.0925 142.773 93.9582 142.317 92.8089 142.681C92.2511 142.081 91.5405 142.763 90.9861 142.236C89.3097 142.665 87.7162 141.448 86.0466 142.024C85.0993 141.025 83.9807 142.055 83.0573 141.573C81.867 141.05 80.6752 141.643 79.6464 141.174C78.7792 140.76 77.8509 141.32 77.1911 140.806C76.254 140.029 75.0828 141.065 74.234 139.905C74.1779 139.838 74.1252 139.844 74.0759 139.925C72.7753 140.456 71.522 139.718 70.2892 139.423C69.3233 139.17 68.1774 139.608 67.3355 138.596L67.2794 138.528C66.2916 138.947 65.4038 138.089 64.4941 137.904C63.5317 137.724 62.3755 137.941 61.4843 137.009C61.4282 136.941 61.3755 136.948 61.3228 136.954C60.2091 136.942 59.0783 136.561 58.0919 135.864C58.0358 135.796 57.9304 135.809 57.825 135.822C56.6093 135.897 55.5141 135.139 54.3901 134.905C53.5858 134.707 52.7254 134.441 51.9704 134.162C51.2119 133.808 50.2769 134.221 49.6492 133.257C49.5931 133.189 49.4315 133.135 49.3261 133.148C48.4403 133.479 47.6648 132.757 46.9098 132.478C45.8317 132.089 44.7043 131.782 43.6618 131.017C42.8404 130.449 41.8643 129.974 40.9971 129.56C40.4529 129.255 39.856 128.956 39.3577 128.497C38.4241 127.794 37.4343 127.023 36.5006 126.32C35.2898 125.353 33.9735 124.399 32.9529 122.963C31.9919 121.668 30.8269 120.547 29.9645 119.091C29.4457 118.188 28.8673 117.144 28.3451 116.167C27.8262 115.264 28.0809 113.894 27.3088 113.245C27.1966 113.11 27.176 112.667 27.159 112.297C27.0461 109.857 26.8279 107.43 26.8766 105.044C26.9273 103.848 27.1327 102.559 27.5558 101.392C27.7954 100.842 27.8666 100.089 28.1028 99.4655C28.4307 98.5329 28.7059 97.6068 29.0338 96.6743C29.9259 94.1852 31.2142 92.2424 32.4957 90.1517C33.3336 88.7847 34.049 87.061 35.1148 86.0378C35.8254 85.3557 36.473 84.4583 37.1835 83.7761C37.9961 83.0071 38.9175 82.2991 39.4987 81.1124C39.8403 80.4756 40.3605 80.263 40.7192 79.9959C41.5879 79.2943 42.3478 78.5318 43.2691 77.8238C43.7298 77.4698 44.3555 77.2443 44.6937 76.5335C44.8415 76.2923 44.9997 76.2729 45.1544 76.1795C45.9943 76.0021 46.5892 75.1111 47.31 74.6508C47.9288 74.2774 48.3656 73.4058 49.1103 73.4631C49.7462 73.4594 50.1864 72.6617 50.7525 72.2948C51.1146 72.1016 51.5856 71.9694 51.8354 71.6413C52.4865 70.8178 53.3366 70.8621 54.0472 70.18C54.5537 69.6717 55.2219 69.2179 55.8934 68.838C56.6669 68.3712 57.5664 68.3351 58.1578 67.3702C58.2071 67.2898 58.3652 67.2704 58.4672 67.1835C59.455 66.7648 60.4428 66.3461 61.3012 65.4227C61.3505 65.3423 61.4559 65.3294 61.5613 65.3165C62.6326 65.5567 63.6525 64.6879 64.3104 64.0123C65.1722 63.1629 66.3729 63.9078 66.9931 62.4188C67.9555 62.5981 68.649 61.5463 69.5347 61.2144C70.5752 60.7893 71.7875 60.6404 72.6918 59.5627C72.6918 59.5627 72.7411 59.4823 72.7972 59.5498C73.9739 59.7771 74.8713 58.5516 75.9714 58.2678C77.1768 57.9711 78.4281 57.52 79.4413 56.5033C79.4906 56.4229 79.5433 56.4164 79.596 56.41C81.0362 56.605 82.3656 55.5494 83.61 54.9505C84.8018 54.358 86.1961 54.7074 87.2449 53.3145C87.2942 53.2341 87.3469 53.2276 87.3996 53.2211C89.0965 53.2359 90.5601 51.6434 92.2638 51.806C92.563 51.3975 93.0442 51.4871 93.3399 51.0047C93.9197 50.9335 94.5063 51.0102 94.9704 50.7301C96.3559 49.7421 97.9118 50.1459 99.1988 49.3187C100.229 48.6717 101.185 48.7031 102.176 48.3583C102.528 47.9433 102.953 47.9655 103.322 47.9202C103.638 47.8814 104.01 47.91 104.253 47.434C104.939 47.3499 105.62 47.1919 106.306 47.1077C106.605 46.6992 107.03 46.7214 107.399 46.6761C107.715 46.6373 108.031 46.5984 108.278 46.1964C109.068 46.0993 109.908 45.9218 110.699 45.8248C111.1 45.3294 111.634 45.4125 112.108 45.3543C112.477 45.309 112.902 45.3312 113.145 44.8552C114.252 44.7193 115.356 44.5095 116.462 44.3736C117.12 43.6979 117.875 43.9771 118.557 43.819C118.975 43.6933 119.46 43.8569 119.805 43.294C121.334 43.1063 122.806 42.8512 124.334 42.6636C124.634 42.255 125.006 42.2837 125.428 42.2319C126.903 42.0507 128.379 41.8695 129.908 41.6819C130.277 41.6366 130.596 41.6717 130.892 41.1892C136.321 40.5227 141.75 39.8562 147.179 39.1897C147.46 39.5271 147.829 39.4818 148.198 39.4365C149.621 39.2618 151.044 39.0871 152.467 38.9124C152.836 38.8671 153.205 38.8218 153.587 39.0722C154.22 38.9946 154.856 38.9909 155.538 38.8328C156.536 38.6359 157.315 39.4326 158.175 39.6988C159.25 40.013 159.133 40.9197 159.233 41.9484C159.324 42.7553 158.873 43.3311 158.511 43.5243C157.737 43.991 157.09 44.8885 156.18 44.7027C155.881 45.1113 155.512 45.1566 155.09 45.2083C154.089 45.3313 153.087 45.4542 152.139 45.5707C151.822 45.6095 151.506 45.6483 151.26 46.0504C148.308 46.4128 145.307 46.8555 142.356 47.2179C142.004 47.6329 141.579 47.6107 141.21 47.656C138.68 47.9666 136.15 48.2772 133.567 48.5943C133.198 48.6396 132.773 48.6174 132.53 49.0934C130.211 49.3781 127.895 49.7368 125.523 50.028C125.224 50.4365 124.852 50.4079 124.43 50.4596C123.376 50.5891 122.322 50.7185 121.267 50.8479C120.951 50.8867 120.635 50.9255 120.389 51.3276C119.071 51.4894 117.704 51.7315 116.386 51.8933C115.781 52.5625 115.026 52.2834 114.344 52.4414C113.926 52.5671 113.494 52.3971 113.202 52.9535C112.253 53.07 111.36 53.2539 110.412 53.3704C109.958 53.8723 109.424 53.7891 108.897 53.8538C108.531 53.973 108.047 53.8095 107.754 54.3659C106.911 54.4694 106.018 54.6534 105.175 54.7569C104.823 55.1719 104.398 55.1497 104.029 55.195C103.713 55.2338 103.341 55.2052 103.097 55.6812C102.412 55.7653 101.731 55.9234 101.045 56.0075C100.595 56.5833 99.8857 56.1498 99.4421 56.8735C97.7911 56.7044 96.3275 58.297 94.6833 58.2757C93.3588 58.2896 92.128 59.1843 90.9328 59.7029C90.047 60.0347 88.9826 59.9423 88.272 60.6244C87.1569 61.728 85.6893 60.9415 84.746 62.3214C84.6967 62.4018 84.644 62.4083 84.5913 62.4147C83.2565 62.2068 82.0257 63.1015 80.9462 63.8289C79.9687 64.4695 78.7852 64.0942 78.0493 65.3743L78 65.4548C76.9321 65.2884 76.1298 66.2792 75.1948 66.6915C74.0523 67.2035 72.8961 67.4198 71.883 68.4365C71.781 68.5234 71.679 68.6103 71.5702 68.5493C70.4989 68.309 69.7 69.3738 68.765 69.786C67.5732 70.3785 66.3287 70.9774 65.1438 71.7178C64.0609 72.3712 63.0306 73.0182 61.9443 73.5978C60.9634 74.1643 59.9297 74.7374 59.061 75.4389C58.3998 76.0406 57.5462 75.9223 56.902 76.8937C56.5536 77.3827 55.7034 77.3383 55.2037 77.9946C54.5 78.8246 53.5512 78.941 52.7879 79.6296C52.278 80.064 51.5469 80.3025 50.9842 80.7434C50.4249 81.2582 49.8554 81.5512 49.3523 82.1335C48.9477 82.555 48.4411 83.0633 48.0722 83.1086C46.8667 83.4053 46.0186 84.5505 45.0479 85.3389C44.4325 85.7862 43.8479 86.8991 43.1763 87.2789C42.2974 87.7586 41.9373 89.1413 41.0447 89.3253C40.6791 89.4445 40.7523 89.8817 40.5484 90.0555C39.5743 90.7699 38.8315 91.9021 37.9731 92.8255C37.1112 93.6749 36.4842 95.016 35.7448 96.2222C35.3998 96.785 35.0021 97.3544 34.7693 98.0522C34.1491 99.5412 33.3146 100.982 32.9647 102.587C32.4383 104.956 32.2876 107.429 32.7693 109.824C32.9055 110.476 33.0554 111.424 33.6098 111.951C33.9959 112.276 34.1423 113.15 34.2683 113.581C34.709 115.088 35.6886 115.637 36.3724 116.668C36.9966 117.559 37.677 118.516 38.4388 118.943C39.2568 119.437 39.8776 120.254 40.7483 120.742C41.619 121.23 42.5882 121.557 43.3672 122.353C43.7567 122.752 44.2344 122.767 44.6171 123.018C45.7054 123.628 46.7938 124.238 47.8821 124.848C48.479 125.146 49.1677 125.136 49.768 125.509C50.8632 126.267 52.1774 126.031 53.1809 127.097C53.2931 127.232 53.4513 127.213 53.6094 127.194C54.4986 126.936 55.3234 127.578 56.0257 127.864C56.7314 128.223 57.6597 127.663 58.1887 128.788C58.1922 128.862 58.3503 128.842 58.4557 128.829C59.4962 128.404 60.5318 129.021 61.2937 129.448C62.0555 129.875 63.0296 129.16 63.5094 130.365C63.5094 130.365 63.5621 130.359 63.6148 130.352C64.7046 129.847 65.7505 130.685 66.7691 130.932C67.7842 131.105 68.9438 130.962 69.8842 131.814C69.9404 131.881 69.9931 131.875 70.0458 131.868C71.1883 131.356 72.2835 132.114 73.2527 132.441C74.2747 132.762 75.4699 132.243 76.3645 133.249C76.4206 133.316 76.4733 133.31 76.5261 133.303C77.9321 132.759 79.3435 133.478 80.629 133.766C81.8618 134.061 83.2117 133.449 84.3733 134.496C84.4294 134.564 84.4821 134.557 84.5348 134.551C86.1551 134.055 87.6993 135.352 89.2635 134.788C89.6036 135.267 90.1698 134.9 90.5592 135.298C91.2444 135.214 91.9331 135.204 92.6183 135.12C93.0112 135.592 93.5246 135.232 93.914 135.63C94.5465 135.553 95.2742 135.24 95.8149 135.471C97.2723 136.036 98.8261 135.25 100.231 135.821C101.474 136.338 102.616 135.826 103.79 135.979C104.126 136.384 104.488 136.191 104.861 136.22C105.177 136.181 105.493 136.142 105.771 136.405C106.35 136.334 106.93 136.263 107.513 136.266C109.266 136.348 111.036 136.8 112.766 136.365C113.102 136.769 113.464 136.576 113.837 136.605C114.206 136.56 114.571 136.44 114.957 136.765C115.643 136.681 116.377 136.516 117.069 136.58C118.822 136.662 120.592 137.114 122.321 136.679C122.658 137.083 123.02 136.89 123.393 136.919C123.762 136.874 124.127 136.754 124.513 137.079C125.357 136.975 126.256 136.939 127.099 136.836C127.436 137.24 127.798 137.047 128.171 137.076C128.54 137.031 128.905 136.911 129.291 137.236C130.134 137.132 131.034 137.096 131.877 136.993C132.214 137.398 132.576 137.204 132.948 137.233C133.374 137.255 133.841 137.049 134.227 137.373C135.018 137.276 135.865 137.247 136.655 137.15C136.995 137.628 137.407 137.355 137.832 137.377C138.362 137.386 138.879 137.1 139.374 137.485C140.217 137.382 141.117 137.346 141.96 137.242C142.297 137.647 142.659 137.454 143.031 137.482C143.4 137.437 143.766 137.318 144.152 137.642C144.995 137.539 145.895 137.503 146.738 137.399C147.078 137.878 147.49 137.604 147.915 137.626C148.445 137.636 148.962 137.349 149.457 137.735C150.142 137.65 150.831 137.64 151.516 137.556C151.856 138.035 152.268 137.761 152.693 137.783C153.223 137.793 153.74 137.506 154.235 137.892C155.078 137.788 155.978 137.752 156.821 137.648C157.161 138.127 157.573 137.854 157.998 137.876C158.528 137.885 159.045 137.598 159.54 137.984C160.383 137.88 161.283 137.844 162.126 137.741C162.463 138.146 162.825 137.952 163.197 137.981C163.675 137.997 164.192 137.71 164.634 138.102C165.372 138.011 166.173 138.136 166.9 137.824C167.892 137.479 168.734 138.491 169.728 138.22C170.726 138.023 171.731 137.974 172.683 137.932C173.023 138.411 173.435 138.137 173.86 138.159C174.39 138.168 174.907 137.882 175.402 138.267C176.351 138.151 177.25 138.115 178.199 137.998C178.539 138.477 178.951 138.203 179.376 138.226C179.959 138.228 180.529 137.935 181.076 138.314C181.814 138.224 182.552 138.133 183.293 138.116C185.458 137.925 187.565 138.782 189.705 138.073C190.045 138.552 190.457 138.278 190.882 138.3C191.465 138.303 192.035 138.01 192.582 138.389C193.584 138.266 194.536 138.223 195.537 138.101C195.93 138.573 196.394 138.293 196.819 138.315C197.455 138.311 198.127 137.931 198.783 138.371C199.837 138.242 200.842 138.193 201.896 138.063C202.233 138.468 202.648 138.269 203.073 138.291C203.604 138.3 204.12 138.013 204.615 138.399C205.828 138.25 207.043 138.175 208.256 138.026C208.648 138.499 209.113 138.219 209.538 138.241C210.174 138.237 210.845 137.857 211.501 138.297C212.714 138.148 213.929 138.073 215.142 137.924C215.535 138.397 215.999 138.117 216.424 138.139C217.379 138.17 218.308 137.61 219.284 138.085C220.76 137.904 222.186 137.803 223.662 137.622C223.943 137.959 224.259 137.921 224.575 137.882C225.471 137.772 226.314 137.668 227.21 137.558C227.527 137.519 227.843 137.481 228.12 137.744C229.754 137.543 231.392 137.417 233.025 137.216C233.306 137.554 233.622 137.515 233.939 137.476C235.045 137.34 236.152 137.204 237.259 137.068C237.628 137.023 237.997 136.978 238.38 137.228C240.225 137.002 242.125 136.843 243.97 136.616C244.254 137.027 244.62 136.908 244.989 136.863C246.254 136.708 247.519 136.552 248.731 136.403C249.1 136.358 249.469 136.313 249.852 136.563C251.907 136.311 253.914 136.139 255.969 135.887C256.25 136.224 256.619 136.179 256.988 136.133C258.2 135.985 259.36 135.842 260.572 135.693C260.941 135.648 261.31 135.603 261.692 135.853C264.591 135.497 267.546 135.209 270.445 134.853C270.726 135.19 271.095 135.145 271.464 135.1C284.272 133.527 297.133 131.948 309.941 130.376C310.31 130.331 310.629 130.366 310.925 129.883C314.298 129.469 317.668 128.981 321.094 128.561C321.393 128.152 321.766 128.181 322.187 128.129C323.558 127.961 324.928 127.792 326.299 127.624C326.668 127.579 326.987 127.614 327.283 127.132C328.97 126.924 330.653 126.643 332.34 126.436C333.205 125.661 334.227 125.982 335.172 125.791C335.59 125.666 336.075 125.829 336.42 125.266C337.685 125.111 338.947 124.882 340.264 124.72C340.922 124.044 341.677 124.323 342.359 124.165C342.777 124.04 343.262 124.203 343.607 123.64C344.661 123.511 345.659 123.314 346.713 123.185C347.167 122.683 347.701 122.766 348.228 122.701C348.594 122.582 349.078 122.746 349.371 122.189C350.214 122.086 351.107 121.902 351.95 121.798C352.404 121.296 352.938 121.379 353.465 121.315C353.83 121.195 354.315 121.359 354.607 120.803C355.292 120.718 355.978 120.634 356.659 120.476C357.011 120.061 357.436 120.083 357.805 120.038C358.122 119.999 358.494 120.028 358.79 119.546C359.633 119.442 360.526 119.258 361.369 119.155C361.819 118.579 362.528 119.012 362.972 118.288C363.552 118.217 364.135 118.22 364.708 118.001C366.272 117.437 367.847 117.095 369.355 116.464C370.29 116.052 371.466 116.279 372.17 115.449C373.229 114.278 374.707 115.286 375.643 113.758C375.693 113.678 375.745 113.672 375.802 113.739C377.189 113.94 378.472 113.039 379.552 112.312C380.681 111.504 382.036 112.156 382.923 110.708C382.923 110.708 382.976 110.702 383.029 110.695C384.205 110.923 385.162 109.838 386.199 109.339C387.131 108.853 388.301 108.933 389.096 107.794C389.146 107.714 389.248 107.627 389.357 107.688C390.428 107.928 391.342 107.072 392.158 106.377C393.027 105.675 394.214 106.125 394.894 104.777C394.943 104.697 395.101 104.677 395.207 104.664C396.278 104.905 397.077 103.84 398.008 103.354C399.2 102.761 400.451 102.31 401.58 101.502C402.041 101.148 402.667 100.923 403.008 100.286C403.153 99.9708 403.363 99.9449 403.522 99.9255C404.309 99.7545 404.963 99.0049 405.568 98.3357C405.92 97.9207 406.384 97.6407 406.796 97.3671C407.721 96.733 408.239 95.3309 409.125 94.9991C410.06 94.5869 410.364 93.1367 411.309 92.9463C411.678 92.901 411.601 92.3899 411.802 92.1422C413.814 89.813 415.655 87.2075 417.156 84.1233C417.543 83.3321 417.597 82.2101 418.048 81.6342C418.893 80.4151 418.132 78.8726 418.706 77.5379C419.041 76.7532 419.121 75.0332 418.282 74.0951C418.17 73.9602 418.153 73.5904 418.139 73.2947C418.127 71.8833 417.394 70.9323 417.076 69.7816C416.754 68.557 415.932 67.9886 415.614 66.8379C415.303 65.8351 414.478 65.1928 413.861 64.4506C412.457 62.7639 411.1 60.9228 409.556 59.6252C408.342 58.5845 407.466 56.833 405.959 56.3488C405.583 56.2462 405.331 55.3848 404.896 55.1408C403.913 54.5178 402.976 53.7406 402.095 53.0308C401.267 52.3145 400.294 51.9134 399.561 50.9623C399.221 50.4836 398.627 50.259 398.09 50.1019C397.767 49.9928 397.595 49.7165 397.321 49.527C396.605 48.9457 395.843 48.5187 395.082 48.0917C394.481 47.7192 393.684 47.6684 393.277 46.9004C392.871 46.1323 392.179 46.0686 391.691 45.831C390.771 45.4235 389.893 44.7876 388.97 44.3061C388.102 43.892 387.179 43.4105 386.354 42.7682C385.859 42.3828 385.249 41.7885 384.514 41.953C383.885 42.1046 383.377 41.4234 382.836 41.1924C382.242 40.9678 381.589 40.6018 380.986 40.1554C379.943 39.3911 378.78 39.4595 377.734 38.6212C377.239 38.2358 376.58 37.7219 375.894 37.8061C375.265 37.9577 374.753 37.2026 374.107 36.9844C373.893 36.9364 373.612 36.599 373.349 36.6314C372.618 36.8699 372.053 36.1212 371.46 35.8967C370.543 35.563 369.669 35.0011 368.713 34.9697C368.183 34.9604 367.579 34.514 367.407 34.2377C366.734 33.4281 365.862 34.0557 365.192 33.32C364.799 32.8477 363.913 33.1795 363.306 32.6592C362.586 32.0039 361.631 31.9725 360.823 31.6998C360.121 31.4143 359.366 31.1351 358.561 30.9365C357.757 30.7378 356.854 30.6999 356.079 29.9771C355.97 29.9161 355.861 29.8551 355.756 29.8681C354.873 30.2738 354.144 29.3967 353.287 29.2045C352.166 29.0446 351.081 28.5086 349.95 28.1269C348.925 27.7323 347.85 27.418 346.776 27.1038C345.645 26.7221 344.57 26.4079 343.439 26.0262C342.252 25.577 341.023 25.3562 339.836 24.907C339.137 24.6954 338.244 24.8793 337.571 24.0697C337.122 23.5299 336.279 23.6335 335.748 23.6242C334.736 23.5253 333.721 23.3525 332.903 22.8581C331.98 22.3766 330.985 22.6474 330.006 22.0984C329.405 21.7259 328.489 21.3923 327.695 21.4154C326.637 21.4709 325.665 21.0698 324.682 20.4469C324.626 20.3794 324.573 20.3859 324.52 20.3923C323.378 20.9044 322.332 20.0661 321.26 19.8258C320.298 19.6466 319.145 19.9368 318.254 19.0052C318.198 18.9377 318.145 18.9442 318.093 18.9506C316.95 19.4627 315.904 18.6244 314.833 18.3841C313.871 18.2049 312.718 18.4951 311.827 17.5635C311.77 17.496 311.718 17.5025 311.665 17.5089C310.523 18.021 309.276 17.4304 308.353 16.9489C307.159 16.3519 305.83 17.4074 304.763 16.1255C304.763 16.1255 304.71 16.1319 304.658 16.1384C303.406 16.5895 302.255 15.7641 301.082 15.6107C300.07 15.5119 298.861 15.7346 297.917 14.8095C297.861 14.742 297.809 14.7485 297.756 14.7549C296.6 14.9712 295.479 14.8114 294.398 14.3493C293.098 13.7652 291.59 14.3965 290.327 13.4362C290.327 13.4362 290.274 13.4427 290.221 13.4491C289.115 13.585 288.04 13.2708 286.975 13.1784C285.433 13.0703 283.966 12.2838 282.402 12.8476C281.619 11.977 280.596 12.7718 279.887 12.3384C278.907 11.7894 277.873 12.3625 277.059 11.9419C276.023 11.3255 274.944 12.0529 274.073 11.5649C272.935 11.0353 271.744 11.6278 270.715 11.1592C269.686 10.6907 268.6 11.2702 267.732 10.8561C266.542 10.333 265.35 10.9255 264.321 10.4569C263.454 10.0429 262.667 10.2139 261.817 10.1695C261.533 9.75825 261.167 9.87748 260.851 9.91631C260.429 9.96808 260.011 10.0938 259.678 9.7629C257.836 10.0633 256.092 9.01341 254.211 9.61606C253.102 8.56244 251.882 9.67896 250.8 9.21685C249.448 8.63922 248 9.41193 246.757 8.8953C245.514 8.37866 244.371 8.89072 243.198 8.73732C242.693 8.1301 242.035 8.80574 241.533 8.27246C240.69 8.37599 239.791 8.41206 238.947 8.51559C238.389 7.91484 237.679 8.59695 237.124 8.07014C236.334 8.1672 235.487 8.19679 234.696 8.29386C234.36 7.88904 233.998 8.08222 233.625 8.05357C233.256 8.09887 232.891 8.2181 232.505 7.8937C231.767 7.98429 231.025 8.00094 230.235 8.09801C229.898 7.69319 229.536 7.88637 229.163 7.85772C228.686 7.84202 228.169 8.12855 227.727 7.73667C226.883 7.84021 225.984 7.87627 225.141 7.97981C224.804 7.57499 224.442 7.76817 224.069 7.73952C223.592 7.72382 223.075 8.01035 222.633 7.61847C221.684 7.73495 220.784 7.77101 219.836 7.88749C219.499 7.48267 219.084 7.68232 218.659 7.66015C218.128 7.65091 217.612 7.93745 217.117 7.55204C216.115 7.67499 215.163 7.71752 214.162 7.84047C213.821 7.36171 213.41 7.6353 212.985 7.61313C212.296 7.62331 211.572 8.00966 210.916 7.56973C209.809 7.70562 208.698 7.76757 207.592 7.90345C207.251 7.4247 206.84 7.69828 206.415 7.67611C205.621 7.69923 204.795 8.17247 204.029 7.67154C202.764 7.82684 201.496 7.9082 200.178 8.06997C199.785 7.59769 199.321 7.87774 198.896 7.85557C197.888 7.83064 196.854 8.40369 195.878 7.92865C194.297 8.12277 192.765 8.23649 191.184 8.43061C190.9 8.01933 190.534 8.13856 190.165 8.18386C188.953 8.33269 187.793 8.47505 186.581 8.62388C186.212 8.66917 185.843 8.71447 185.461 8.464C182.878 8.78108 180.344 9.01774 177.762 9.33481C177.425 8.92999 177.059 9.04923 176.69 9.09453C173.054 9.54101 169.417 9.9875 165.833 10.4275C165.411 10.4793 164.94 10.6115 164.554 10.2871C160.443 10.7918 156.384 11.29 152.273 11.7948C151.925 12.2837 151.443 12.1941 151.022 12.2458C147.438 12.6858 143.906 13.1194 140.322 13.5594C139.953 13.6047 139.528 13.5825 139.285 14.0585C136.86 14.3562 134.386 14.7343 131.962 15.0319C131.663 15.4404 131.29 15.4118 130.869 15.4636C129.551 15.6253 128.233 15.7871 126.916 15.9489C126.547 15.9942 126.227 15.9591 125.931 16.4415C124.192 16.6551 122.456 16.9425 120.717 17.1561C120.417 17.5646 120.045 17.536 119.623 17.5877C118.675 17.7042 117.779 17.8142 116.83 17.9307C116.514 17.9695 116.197 18.0083 115.951 18.4104C114.686 18.5657 113.424 18.7949 112.107 18.9567C111.294 19.7257 110.325 19.3985 109.485 19.576C109.067 19.7017 108.582 19.5381 108.237 20.101C107.025 20.2498 105.816 20.4726 104.604 20.6214C103.998 21.2906 103.243 21.0115 102.562 21.1696C102.196 21.2888 101.711 21.1252 101.419 21.6816C100.365 21.811 99.3142 22.0144 98.3128 22.1373C97.8623 22.7132 97.2723 22.5625 96.7452 22.6272C96.2216 22.7659 95.6315 22.6152 95.1811 23.1911C94.3377 23.2946 93.4451 23.4785 92.6018 23.5821C92.2007 24.0775 91.6667 23.9943 91.1924 24.0525C90.8234 24.0978 90.3983 24.0757 90.1553 24.5517C89.312 24.6552 88.4194 24.8391 87.576 24.9427C87.1222 25.4446 86.5883 25.3614 86.0612 25.4261C85.6956 25.5453 85.211 25.3817 84.9187 25.9382C84.2335 26.0223 83.5517 26.1803 82.8665 26.2645C82.4654 26.7599 81.9314 26.6767 81.4571 26.7349C81.0881 26.7802 80.663 26.7581 80.42 27.234C79.6821 27.3246 78.9476 27.4892 78.157 27.5862C77.8051 28.0012 77.38 27.9791 77.0111 28.0244C76.6948 28.0632 76.3225 28.0345 76.0267 28.517C75.3415 28.6011 74.6597 28.7592 73.9745 28.8433C73.6227 29.2583 73.1976 29.2361 72.8286 29.2814C72.5124 29.3203 72.14 29.2916 71.897 29.7676C70.0878 29.6179 68.4661 31.2298 66.6111 31.2345C65.1284 31.2678 63.7395 32.1819 62.3301 32.6524C61.3389 32.9972 60.3443 33.268 59.4023 33.5323C59.0505 33.9473 58.6254 33.9252 58.2564 33.9705C57.9402 34.0093 57.5678 33.9806 57.3248 34.4566C55.4766 34.6092 53.8481 36.0732 51.9862 35.93C51.1414 37.1491 49.8881 36.4107 49.0195 37.1122C48.0981 37.8202 47.1986 37.8563 46.2567 38.1206C45.9575 38.5291 45.5852 38.5005 45.1635 38.5523C44.8473 38.5911 44.531 38.6299 44.2846 39.032C42.5877 39.0172 41.1241 40.6097 39.4203 40.4471C38.4209 41.7596 37.1114 40.9536 36.0846 41.6746C34.9558 42.4824 33.6669 42.1201 32.6435 42.915C31.6694 43.6295 30.6475 43.3088 29.7754 43.9363C28.6466 44.7442 27.361 44.4558 26.3342 45.1768C25.4128 45.8848 24.3909 45.5641 23.5715 46.1852C22.3934 47.0734 21.0483 46.6437 20.0777 47.4321C19.1036 48.1465 18.1939 47.9608 17.3115 48.3666C16.0143 48.972 14.6473 49.2141 13.3467 49.7456C12.5664 50.0645 11.7333 50.3899 10.8968 50.6413C10.4498 51.291 9.74064 50.8576 9.29362 51.5073C8.35855 51.9196 7.67335 52.0037 6.98815 52.0878C6.68899 52.4963 6.20778 52.4067 5.91205 52.8892C5.17414 52.9797 4.43623 53.0703 3.75444 53.2284C2.7037 53.4318 1.78715 53.0981 0.948656 52.16C0.88911 52.0186 0.734405 52.112 0.628989 52.1249C0.594795 51.3855 0.5606 50.6461 0.526406 49.9067C1.29451 48.1765 2.36718 47.3012 3.77662 46.8307C4.71511 46.4924 5.58379 45.7909 6.64479 45.8094C7.12258 45.8251 7.5374 45.6254 7.82972 45.069C9.24941 44.8204 10.6418 43.9802 12.0512 43.5097C13.2532 43.1391 14.5709 42.9773 15.6895 41.9476C15.7915 41.8608 15.9462 41.7674 16.1043 41.748C16.9476 41.6445 17.7211 41.1777 18.5542 40.8523C19.6967 40.3403 20.8529 40.124 21.9953 39.6119C23.5526 38.9002 25.1763 38.4778 26.7234 37.5443C27.0328 37.3576 27.4017 37.3123 27.7707 37.267C28.4559 37.1829 29.1411 37.0987 29.8024 36.497C30.3089 35.9887 31.0044 36.1264 31.5842 36.0552C32.062 36.0709 32.5329 35.9387 32.8218 35.3084C33.2332 35.0348 33.6583 35.057 34.1327 34.9987C34.5543 34.947 34.9199 34.8277 35.2752 34.4867C35.3772 34.3998 35.4757 34.239 35.5812 34.226C36.9584 34.2057 38.1687 32.8673 39.5459 32.847C40.1291 32.8497 40.6528 32.7111 41.1032 32.1352C41.2052 32.0484 41.3072 31.9615 41.4126 31.9485C42.9514 31.9827 44.274 30.7793 45.7498 30.5981C45.8552 30.5852 46.0168 30.6397 46.1153 30.4789C47.1777 29.3818 48.5823 29.9529 49.6092 29.232C50.9947 28.2439 52.554 28.7217 53.8765 27.5183C54.3338 27.0904 55.0292 27.2281 55.609 27.1569C56.3401 26.9184 57.2108 27.4064 57.7988 26.3676C58.1575 26.1004 58.5265 26.0552 58.8954 26.0099C59.4225 25.9451 59.9496 25.8804 60.4 25.3046C60.502 25.2177 60.604 25.1309 60.7094 25.1179C62.4064 25.1327 63.9261 23.6076 65.6791 23.6898C66.2096 23.6991 66.6737 23.419 67.1871 23.0585C68.1085 22.3505 69.1798 22.5908 70.2305 22.3875C70.9616 22.149 71.8323 22.637 72.4203 21.5981C73.0357 21.1508 73.7312 21.2885 74.4129 21.1304C75.144 20.8919 76.0147 21.3799 76.6027 20.341C77.2181 19.8937 77.9136 20.0314 78.5954 19.8733C79.3265 19.6349 80.1972 20.1228 80.7818 19.01C81.608 18.5368 82.4616 18.6551 83.2522 18.558C83.7266 18.4998 84.1448 18.3741 84.6226 18.3898C85.0477 18.412 85.4064 18.1448 85.6494 17.6688C86.5811 17.1827 87.5401 17.288 88.4888 17.1715C89.0686 17.1004 89.645 16.9552 90.2282 16.958C90.6499 16.9062 90.9593 16.7195 91.2023 16.2435C92.1866 15.7509 93.1983 15.8498 94.2491 15.6464C94.8289 15.5752 95.4053 15.4301 95.9885 15.4329C96.4101 15.3811 96.7195 15.1944 96.9626 14.7184C97.9469 14.2257 99.0113 14.3182 100.009 14.1213C100.853 14.0177 101.749 13.9077 102.592 13.8042C103.014 13.7524 103.323 13.5657 103.57 13.1637C104.603 12.5906 105.724 12.7505 106.827 12.5407C107.723 12.4306 108.567 12.3271 109.463 12.2171C109.884 12.1653 110.194 11.9786 110.437 11.5026C111.734 10.8972 113.065 11.0312 114.38 10.7955C115.486 10.6596 116.593 10.5237 117.7 10.3878C118.122 10.3361 118.431 10.1494 118.678 9.74731C120.133 9.12249 121.675 9.23059 123.148 8.97547C124.623 8.79429 126.099 8.6131 127.575 8.43192C127.997 8.38015 128.362 8.26092 128.658 7.77845C128.964 7.5178 129.28 7.47898 129.596 7.44015C131.916 7.15544 134.182 6.87719 136.501 6.59247C139.4 6.23658 142.246 5.88715 145.145 5.53125C145.514 5.48595 145.943 5.58207 146.182 5.03213C153.983 4.07445 161.784 3.11676 169.532 2.16554C169.82 2.65077 170.234 2.45113 170.603 2.40583C173.081 2.1017 175.558 1.79757 178.035 1.49344C178.457 1.44167 178.875 1.31596 179.212 1.72078C181.489 1.66435 183.808 1.37964 186.074 1.10139C186.355 1.43874 186.671 1.39991 186.987 1.36109C188.094 1.2252 189.201 1.08931 190.308 0.953422C190.677 0.908127 191.046 0.86283 191.428 1.1133C193.062 0.912698 194.7 0.786041 196.334 0.585445C196.727 1.05773 197.191 0.777673 197.616 0.799845C198.519 0.837722 199.394 0.284076 200.265 0.772064C201.583 0.610293 202.956 0.51599 204.274 0.354219C204.614 0.832976 205.026 0.559389 205.451 0.581562C206.192 0.56491 206.966 0.0981447 207.678 0.605547C208.838 0.463187 210.001 0.394767 211.16 0.25241C211.553 0.724694 212.017 0.444637 212.442 0.46681C213.184 0.450158 213.908 0.0638053 214.564 0.503737C215.408 0.400204 216.307 0.364139 217.151 0.260606C217.491 0.739362 217.902 0.465774 218.327 0.487947C218.963 0.484236 219.582 0.110828 220.238 0.550758C221.187 0.434284 222.087 0.398217 223.035 0.281743C223.372 0.686559 223.787 0.486913 224.212 0.509086C224.742 0.518318 225.259 0.231787 225.754 0.61719C226.439 0.533069 227.125 0.448949 227.813 0.438767C228.153 0.917524 228.565 0.643938 228.99 0.66611C229.52 0.675342 230.037 0.388811 230.532 0.774214C231.375 0.670681 232.275 0.634618 233.118 0.531083C233.455 0.9359 233.817 0.742724 234.189 0.771367C234.558 0.726072 234.924 0.606835 235.31 0.93124C235.837 0.866532 236.364 0.801824 236.895 0.811056C238.483 0.764809 240.052 1.46444 241.62 0.974551C241.957 1.37937 242.319 1.18619 242.691 1.21483C243.06 1.16954 243.429 1.12424 243.812 1.37471C244.339 1.31 244.869 1.31923 245.396 1.25452C246.819 1.07981 248.192 2.10108 249.594 1.48273C249.931 1.88754 250.293 1.69437 250.666 1.72301C251.035 1.67772 251.4 1.55848 251.786 1.88288C252.313 1.81817 252.84 1.75347 253.318 1.76917C253.602 2.18046 254.017 1.98081 254.39 2.00945C254.758 1.96416 255.124 1.84492 255.51 2.16933C256.248 2.07873 257.183 1.6665 257.783 2.03896C258.657 2.60089 259.438 2.282 260.288 2.32635C260.572 2.73764 260.938 2.6184 261.254 2.57958C261.675 2.52781 262.094 2.4021 262.427 2.73298C264.103 2.30409 265.697 3.5213 267.367 2.94453C268.314 3.94363 269.485 2.90752 270.408 3.38904C271.546 3.91861 272.685 3.33261 273.658 3.73372C274.631 4.13482 275.615 3.64217 276.38 4.1431C277.416 4.75956 278.404 4.34085 279.415 4.43973C279.752 4.84454 280.22 4.63842 280.553 4.9693C282.068 4.48588 283.486 5.3528 284.972 5.39344C285.822 5.43779 286.824 5.31484 287.586 5.74183C288.509 6.22335 289.441 5.73717 290.255 6.15769C291.179 6.63921 292.216 6.14009 292.978 6.56708C293.848 7.05507 294.931 6.4016 295.489 7.00235C296.433 7.92751 297.594 6.66958 298.341 7.91638C298.397 7.98385 298.449 7.97738 298.502 7.97091C299.803 7.43943 301.151 7.94312 302.236 8.47917C303.427 9.00227 304.763 8.09463 305.826 9.3026C305.826 9.3026 305.879 9.29613 305.931 9.28966C307.074 8.7776 308.218 9.45506 309.138 9.86263C310.381 10.3793 311.717 9.47162 312.78 10.6796C312.78 10.6796 312.833 10.6731 312.886 10.6667C314.028 10.1546 315.074 10.9929 316.145 11.2332C317.108 11.4124 318.261 11.1222 319.152 12.0538C319.208 12.1213 319.261 12.1148 319.313 12.1084C320.354 11.6832 321.333 12.2322 322.201 12.6462C323.177 13.1213 324.312 12.4613 325.158 13.5473C325.214 13.6148 325.267 13.6083 325.319 13.6018C326.465 13.1637 327.511 14.002 328.632 14.1619C329.324 14.2256 330.325 14.1027 330.949 14.9927C331.005 15.0602 331.114 15.1212 331.167 15.1147C332.208 14.6895 333.24 15.2321 334.005 15.733C334.988 16.3559 336.015 15.635 336.906 16.5666C337.352 17.0324 338.198 17.0028 338.729 17.0121C339.688 17.1174 340.756 17.2837 341.574 17.7782C342.5 18.3337 343.492 17.9889 344.471 18.5379C345.071 18.9103 345.981 19.0961 346.785 19.2948C347.59 19.4935 348.489 19.4574 349.159 20.1931C349.215 20.2606 349.324 20.3216 349.377 20.3151C350.312 19.9029 351.14 20.6192 351.899 20.9722C352.604 21.3317 353.451 21.3021 354.16 21.7356C354.813 22.1016 355.67 22.2938 356.475 22.4925C357.279 22.6912 358.178 22.6551 358.848 23.3908C358.905 23.4583 359.013 23.5193 359.066 23.5128C359.949 23.1071 360.632 24.1385 361.535 24.1764C362.013 24.1921 362.712 24.4037 363.164 25.0174C363.224 25.1588 363.385 25.2134 363.438 25.2069C364.32 24.8011 365.099 25.5978 365.854 25.8769C366.932 26.2651 368.204 26.2577 369.102 27.3372C369.215 27.4721 369.373 27.4527 369.531 27.4333C370.378 27.4037 371.09 27.9111 371.806 28.4925C371.915 28.5535 372.024 28.6144 372.129 28.6015C373.029 28.5654 373.752 29.2947 374.563 29.6412C375.209 29.8594 375.774 30.608 376.557 30.363C377.078 30.1505 377.53 30.7642 377.913 31.0146C379.169 31.827 380.553 31.9545 381.705 32.7799C382.909 33.5987 384.208 34.1828 385.465 34.9952C386.335 35.4832 387.259 35.9647 388.182 36.4462C389.053 36.9342 390.022 37.2614 390.801 38.0581C391.138 38.4629 391.668 38.4721 392.051 38.7226C393.308 39.535 394.564 40.3474 395.818 41.0858C396.91 41.7698 397.962 42.7559 399.153 43.279C399.802 43.5711 400.455 43.9371 401.013 44.5378C401.518 45.145 402.168 45.4371 402.814 45.6552C403.137 45.7643 403.207 46.1275 403.425 46.2495C404.457 46.792 405.397 47.6432 406.331 48.3466C407.156 48.9889 408.037 49.6987 408.914 50.3346C409.683 50.9094 410.314 51.9474 411.22 52.0592C411.593 52.0878 411.56 52.5379 411.782 52.7339C414.018 54.0953 415.775 56.5565 417.423 58.9568C418.163 60.0557 419.163 61.0483 419.607 62.6297C419.856 63.4172 420.47 64.0854 420.88 64.9274C421.227 65.554 421.524 66.261 421.766 66.9006C422.365 68.3887 422.865 70.0375 423.26 71.6993C423.715 73.5025 423.691 75.29 423.882 77.1256C424.07 78.8872 423.67 80.5721 423.162 82.1961C422.933 82.9678 423.139 83.9836 422.699 84.7812C422.554 85.0964 422.364 85.5659 422.223 85.955C421.063 89.5181 418.895 91.9406 417.233 94.9703C416.035 95.4149 415.586 97.1802 414.563 97.9751C413.744 98.5962 413.05 99.648 412.241 100.491C411.481 101.253 410.781 102.157 410.021 102.92C409.208 103.689 408.277 104.175 407.58 105.153C407.281 105.562 406.767 105.922 406.405 106.115C405.371 106.688 404.593 108.197 403.374 108.198C403.155 109.191 402.347 108.919 401.9 109.568C401.502 110.138 400.649 110.019 400.1 110.756C399.449 111.579 398.437 111.481 397.79 112.378C397.388 112.873 396.654 113.038 396.186 113.244C395.301 113.576 394.537 114.265 393.655 114.67C392.615 115.095 391.455 115.238 390.603 116.309C390.554 116.389 390.501 116.396 390.449 116.402C389.272 116.175 388.199 117.05 387.331 117.752C386.153 118.64 384.744 117.995 383.805 119.449C383.755 119.529 383.703 119.536 383.65 119.542C381.953 119.528 380.489 121.12 378.786 120.957C378.276 121.392 377.742 121.309 377.499 121.785Z" fill="#2ACC32"/>
</svg>
